
                <svg xmlns="http://www.w3.org/2000/svg" xmlns:xlink="http://www.w3.org/1999/xlink" width="710" height="523" shape-rendering="optimizeSpeed">
                
                <g>
                   <rect x="50" y="65" width="396.59999999999997" height="30" rx="2" ry="2" style="fill:#C5E1A5; stroke:#444; stroke-width:1"></rect>
                   <title>sap.ui.define(["sap/ui/core/UIComponent"], *())</title>
            <text x="65" y="85" font-family="monospace" font-size="13" fill="#222">
                <tspan x="65" y="85">sap.ui.define(["sap/ui/core/UIComponent"], *())</tspan>
            </text>
                   
                   
                </g>
            <g>
                <rect x="87" y="113.5" width="213.79999999999998" height="30" style="fill:#a5d6a7; stroke:#444; stroke-width:1"></rect>
                    
                <line x1="97" y1="113.5" x2="97" y2="143.5" style="fill:#a5d6a7; stroke:#444; stroke-width:1"></line>
                <line x1="290.79999999999995" y1="113.5" x2="290.79999999999995" y2="143.5" style="fill:#a5d6a7; stroke:#444; stroke-width:1"></line>
             
                <title>function(UIComponent)</title>
            <text x="112" y="133.5" font-family="monospace" font-size="13" fill="#222">
                <tspan x="112" y="133.5">function(UIComponent)</tspan>
            </text>
                
            </g>
            <g>
                <rect x="124" y="162" width="443.4" height="30" rx="3" ry="3" style="fill:#90caf9; stroke:#444; stroke-width:1"></rect>
                
                <line x1="567.4" y1="172" x2="572.4" y2="172" style="fill:#a5d6a7; stroke:#444; stroke-width:1"></line>
                
                <line x1="567.4" y1="182" x2="572.4" y2="182" style="fill:#a5d6a7; stroke:#444; stroke-width:1"></line>

                <path d="M572.4, 166 L588.4, 177 L572.4, 188 Z" fill="#a5d6a7" stroke="#444" stroke-width="1"></path>
                             
                <title>return UIComponent.extend('phoenix.starter.Component',
/** @lends phoenix.starter.Component */
{
  metadata: {
    manifest: "json"
  },

  /**
  * The component is initialized by UI5 automatically during the startup of the app and calls the init method once.
  * In this method, the device models are set and the router is initialized.
  * @public
  * @override
  */
  init: function () {
    // call the base component's init function and create the App view
    UIComponent.prototype.init.apply(this, arguments);
  }
})</title>
            <text x="139" y="182" font-family="monospace" font-size="13" fill="#222">
                <tspan x="139" y="182">return UIComponent.extend('phoenix.starter.Compone...</tspan>
            </text>
                
            </g>
                <g>
                   <rect x="161" y="210.5" width="53.4" height="30" rx="3" ry="3" style="fill:#90caf9; stroke:#444; stroke-width:1"></rect>
                   <title>{*}</title>
            <text x="176" y="230.5" font-family="monospace" font-size="13" fill="#222">
                <tspan x="176" y="230.5">{*}</tspan>
            </text>
                   
                   
                </g>
                <g>
                   <rect x="198" y="259" width="131.39999999999998" height="30" rx="2" ry="2" style="fill:#90caf9; stroke:#444; stroke-width:1"></rect>
                   <title>metadata: {*}</title>
            <text x="213" y="279" font-family="monospace" font-size="13" fill="#222">
                <tspan x="213" y="279">metadata: {*}</tspan>
            </text>
                   
                   
                </g>
                <g>
                   <rect x="235" y="307.5" width="154.8" height="30" rx="2" ry="2" style="fill:#90caf9; stroke:#444; stroke-width:1"></rect>
                   <title>manifest: "json"</title>
            <text x="250" y="327.5" font-family="monospace" font-size="13" fill="#222">
                <tspan x="250" y="327.5">manifest: "json"</tspan>
            </text>
                   
                   
                </g>
                <g>
                   <rect x="198" y="356" width="76.8" height="30" rx="2" ry="2" style="fill:#90caf9; stroke:#444; stroke-width:1"></rect>
                   <title>init: </title>
            <text x="213" y="376" font-family="monospace" font-size="13" fill="#222">
                <tspan x="213" y="376">init: </tspan>
            </text>
                   
                   
                </g>
            <g>
                <rect x="235" y="419.5" width="128" height="30" style="fill:#a5d6a7; stroke:#444; stroke-width:1"></rect>
                    
                <line x1="245" y1="419.5" x2="245" y2="449.5" style="fill:#a5d6a7; stroke:#444; stroke-width:1"></line>
                <line x1="353" y1="419.5" x2="353" y2="449.5" style="fill:#a5d6a7; stroke:#444; stroke-width:1"></line>
             
                <title>function()</title>
            <text x="260" y="439.5" font-family="monospace" font-size="13" fill="#222">
                <tspan x="260" y="439.5">function()</tspan>
            </text>
                
            </g>
                <g>
                   <rect x="272" y="468" width="412.2" height="30" rx="2" ry="2" style="fill:#C5E1A5; stroke:#444; stroke-width:1"></rect>
                   <title>UIComponent.prototype.init.apply(this, arguments)</title>
            <text x="287" y="488" font-family="monospace" font-size="13" fill="#222">
                <tspan x="287" y="488">UIComponent.prototype.init.apply(this, arguments)</tspan>
            </text>
                   
                   
                </g>
            <g>
               <rect x="25" y="13.75" width="216.6" height="24" style="fill:#fff59d; stroke:#444; stroke-width:1"></rect>
               <circle cx="25" cy="25" r="15" style="fill:#fff59d; stroke:#444; stroke-width:1"></circle>
               <title>Program: source module</title>
            <text x="55" y="30" font-family="monospace" font-size="13" fill="#222">
                <tspan x="55" y="30">Program: source module</tspan>
            </text>
            </g>
            <g>
               <path d="M25, 40 L25 76 Q25 80
                29 80
                L42 80 " style="fill:none; stroke:#444; stroke-width:1"></path>
               <path d="M42, 77 L50, 80 L42, 83 Z" fill="#333"></path>
            </g>
            <g>
               <path d="M68.5, 95 L68.5 124.5 Q68.5 128.5
                72.5 128.5
                L87 128.5 " style="fill:none; stroke:#444; stroke-width:1"></path>
               false
            </g>
            <g>
               <path d="M105.5, 143.5 L105.5 173 Q105.5 177
                109.5 177
                L116 177 " style="fill:none; stroke:#444; stroke-width:1"></path>
               <path d="M116, 174 L124, 177 L116, 180 Z" fill="#333"></path>
            </g>
            <g>
               <path d="M142.5, 192 L142.5 221.5 Q142.5 225.5
                146.5 225.5
                L153 225.5 " style="fill:none; stroke:#444; stroke-width:1"></path>
               <path d="M153, 222.5 L161, 225.5 L153, 228.5 Z" fill="#333"></path>
            </g>
            <g>
               <path d="M179.5, 240.5 L179.5 270 Q179.5 274
                183.5 274
                L198 274 " style="fill:none; stroke:#444; stroke-width:1"></path>
               false
            </g>
            <g>
               <path d="M216.5, 289 L216.5 318.5 Q216.5 322.5
                220.5 322.5
                L235 322.5 " style="fill:none; stroke:#444; stroke-width:1"></path>
               false
            </g>
            <g>
               <path d="M179.5, 240.5 L179.5 367 Q179.5 371
                183.5 371
                L198 371 " style="fill:none; stroke:#444; stroke-width:1"></path>
               false
            </g>
            <g>
               <path d="M216.5, 386 L216.5 430.5 Q216.5 434.5
                220.5 434.5
                L227 434.5 " style="fill:none; stroke:#444; stroke-width:1"></path>
               <path d="M227, 431.5 L235, 434.5 L227, 437.5 Z" fill="#333"></path>
            </g>
            <g>
               <path d="M253.5, 449.5 L253.5 479 Q253.5 483
                257.5 483
                L264 483 " style="fill:none; stroke:#444; stroke-width:1"></path>
               <path d="M264, 480 L272, 483 L264, 486 Z" fill="#333"></path>
            </g>
            </svg>